<?xml version="1.0" encoding="utf-8"?>
<!-- Generator: Adobe Illustrator 21.0.0, SVG Export Plug-In . SVG Version: 6.00 Build 0)  -->
<svg version="1.1" id="Layer_1" xmlns="http://www.w3.org/2000/svg" xmlns:xlink="http://www.w3.org/1999/xlink" x="0px" y="0px"
	 viewBox="0 0 500 200" style="enable-background:new 0 0 500 200;" xml:space="preserve">
<style type="text/css">
	.st0{fill:none;}
	.st1{fill:#1C449B;}
	.st2{fill:#FFFFFF;}
	.st3{fill:#6D6E70;}
</style>
<rect y="0" class="st0" width="500" height="200"/>
<g>
	<rect x="0.3" y="0.1" class="st0" width="499.6" height="199.9"/>
	<g>
		<g>
			<path class="st1" d="M95.6,63.7l3.9-1.2l-0.5-4.1c-0.2-1.4-0.2-2.8-0.2-4.3c0-19,15.5-34.3,34.3-34.3c5.5,0,10.9,1.2,15.7,3.7
				l3.6,1.8l2.5-3c6.8-8,15.3-12.5,24-12.5c14.9,0,26.2,12.1,27.4,29.4l0.5,7.7l6.8-3.6c4.4-2.3,9.1-3.4,14.1-3.4
				c16.2,0,29.4,12.6,30.2,28.6l0.4,5l5-0.4c0.5,0,0.9,0,1.4,0c8.2,0,15.3,5,18.5,12.1h10.5c-3.4-11.9-13.7-20.8-26.3-21.9
				c-3.2-19-19.9-33.5-39.7-33.5c-4.3,0-8.4,0.7-12.3,2C211.4,13,197,0,178.8,0c-10.5,0-20.8,4.6-29,13c-5.3-2.1-11-3.2-16.7-3.2
				c-24.4,0-44.3,19.9-44.3,44.3c0,0.5,0,1.1,0,1.6C77,61,69,72.4,68.1,85.4h10C79.2,75.3,85.9,66.7,95.6,63.7z"/>
			<path class="st2" d="M181.3,96.3"/>
		</g>
		<g>
			<path class="st1" d="M29.7,183.3c-16.9,0-29.5-13.7-29.5-29.9c0-16.4,12.6-30.2,29.5-30.2c10.9,0,17.8,4.6,23.1,10.3l-5.7,6
				c-4.6-4.8-9.6-8.7-17.4-8.7c-11.7,0-20.6,10-20.6,22.4c0,12.6,9.1,22.4,21.2,22.4c7.3,0,13-3.7,17.6-8.5l5.5,5.2
				C47.5,178.5,40.6,183.3,29.7,183.3z"/>
			<path class="st1" d="M68.1,181.9v-81.3h8.5v81.3H68.1z"/>
			<path class="st1" d="M123,183.3c-17.3,0-29.9-13.5-29.9-29.9s12.6-30.2,30.1-30.2c17.3,0,29.9,13.5,29.9,29.9
				S140.4,183.3,123,183.3z M123,130.6c-12.5,0-21,10-21,22.4c0,12.5,9.1,22.4,21.4,22.4c12.5,0,21.2-10,21.2-22.2
				C144.5,140.6,135.2,130.6,123,130.6z"/>
			<path class="st1" d="M209.6,124.2h8.5v57.7h-8.5v-10c-3.9,6.2-9.8,11.2-19.8,11.2c-13.9,0-22.1-9.4-22.1-23.1v-35.8h8.5v33.6
				c0,10.7,5.9,17.4,16,17.4c9.8,0,17.3-7.3,17.3-18V124.2z"/>
			<path class="st1" d="M283.5,181.9v-11.6c-4.6,6.9-11.4,12.8-22.1,12.8c-13.9,0-27.6-10.9-27.6-29.9c0-18.9,13.7-30.1,27.6-30.1
				c10.7,0,17.6,5.9,22.1,12.3v-34.9h8.5v81.3H283.5z M263,130.8c-11.2,0-20.3,8.2-20.3,22.2c0,13.7,9.4,22.4,20.3,22.4
				c10.7,0,20.8-8.9,20.8-22.4C283.8,139.7,273.7,130.8,263,130.8z"/>
			<path class="st3" d="M341.8,183.1c-10.7,0-17.6-5.9-22.1-12.3v28.8h-8.5v-75.4h8.5v11.6c4.6-6.9,11.4-12.8,22.1-12.8
				c13.9,0,27.6,10.9,27.6,29.9S355.9,183.1,341.8,183.1z M340.4,130.8c-10.7,0-20.8,8.9-20.8,22.2c0,13.5,10.1,22.4,20.8,22.4
				c11.2,0,20.3-8.2,20.3-22.2C360.7,139.5,351.2,130.8,340.4,130.8z"/>
			<path class="st3" d="M388.6,135.2l-2.5-6.9c6.4-2.8,12.6-4.8,21-4.8c15.7,0,24.6,8,24.6,23.1v35.2h-8.2v-8.7
				c-4.1,5.2-10.7,10-20.8,10c-10.7,0-21.5-6-21.5-18c0-12.3,10-18.7,24.6-18.7c7.3,0,12.6,1.1,17.8,2.5v-2
				c0-10.3-6.4-15.7-17.1-15.7C399.3,131.1,394,132.9,388.6,135.2z M389.5,164.8c0,7.3,6.8,11.6,14.4,11.6
				c10.5,0,19.2-6.4,19.2-15.7v-5.5c-4.3-1.2-10-2.5-16.9-2.5C395.6,152.7,389.5,157.3,389.5,164.8z"/>
			<path class="st3" d="M475.6,183.8c-5,11.9-10.5,16.2-19.2,16.2c-4.8,0-8.4-1.1-12.3-2.8l2.8-6.8c2.8,1.4,5.3,2.1,9.1,2.1
				c5.2,0,8.4-2.7,11.7-10.9l-26.2-57.3h9.4l21,48l18.5-48h9.1L475.6,183.8z"/>
		</g>
	</g>
</g>
</svg>
