<?xml version="1.0" encoding="utf-8"?>
<!-- Generator: Adobe Illustrator 21.1.0, SVG Export Plug-In . SVG Version: 6.00 Build 0)  -->
<svg version="1.1" id="Layer_1" xmlns="http://www.w3.org/2000/svg" xmlns:xlink="http://www.w3.org/1999/xlink" x="0px" y="0px"
	 viewBox="0 0 160 160" style="enable-background:new 0 0 160 160;" xml:space="preserve">
<style type="text/css">
	.st0{fill:#FFFFFF;}
</style>
<g>
	<path class="st0" d="M80,0C35.9,0,0,35.9,0,80s35.9,80,80,80c44.1,0,80-35.9,80-80S124.1,0,80,0z M80,22.5
		c31.7,0,57.5,25.8,57.5,57.5c0,31.7-25.8,57.5-57.5,57.5S22.5,111.7,22.5,80C22.5,48.3,48.3,22.5,80,22.5z M77.6,5.1v12.5
		c-32.2,1.2-58.3,27-60,59H5.1C6.9,37.6,38.5,6.3,77.6,5.1z M17.6,81c0.6,33.1,27.1,60,60,61.3v12.7C37.7,153.7,5.6,121.1,5,81H17.6
		z M82.1,155v-12.7c33.5-1.1,60.4-28.7,60.4-62.4s-26.9-61.3-60.4-62.4V5C122.5,6.2,155,39.3,155,80S122.5,153.8,82.1,155z"/>
	<rect x="77.1" y="30.2" class="st0" width="5.9" height="5.9"/>
	<rect x="77.1" y="123.7" class="st0" width="5.9" height="5.9"/>
	<rect x="30.2" y="77.1" class="st0" width="5.9" height="5.9"/>
	<rect x="123.7" y="77.1" class="st0" width="5.9" height="5.9"/>
	<path class="st0" d="M58.7,107.5c6.1,4.7,13.6,7.3,21.4,7.3c19.3,0,35.1-15.7,35.1-35.1c-0.1-7.4-2.6-14.7-7.2-20.9l10-18.8
		L98.8,50.4c-5.7-3.6-12.2-5.5-18.8-5.5c-19.3,0-35.1,15.7-35.1,35.1c0,6.6,1.9,13.1,5.6,19l0.4,0.7l-9,16.8L58.7,107.5z M86.2,87.6
		l-33.1,17.8l17.7-33.3L86.2,87.6z M73.9,68.9l33.4-18L89.4,84.5L73.9,68.9z M91.5,89.9l13.9-26.1c3.1,4.9,4.7,10.4,4.7,16.1
		c0,16.6-13.5,30.1-30.1,30.1c-5.9,0-11.6-1.8-16.4-5L91.5,89.9z M80,49.8c4.9,0,9.6,1.2,13.8,3.3L68.5,66.8L53.8,94.5
		c-2.5-4.4-3.8-9.4-3.8-14.6C49.9,63.3,63.4,49.8,80,49.8z"/>
</g>
</svg>
