<?xml version="1.0" encoding="utf-8"?>
<!-- Generator: Adobe Illustrator 21.1.0, SVG Export Plug-In . SVG Version: 6.00 Build 0)  -->
<svg version="1.1"
	 id="Layer_1" inkscape:version="0.91 r13725" sodipodi:docname="icon-crypta-v2.svg" xmlns:cc="http://creativecommons.org/ns#" xmlns:dc="http://purl.org/dc/elements/1.1/" xmlns:inkscape="http://www.inkscape.org/namespaces/inkscape" xmlns:osb="http://www.openswatchbook.org/uri/2009/osb" xmlns:rdf="http://www.w3.org/1999/02/22-rdf-syntax-ns#" xmlns:sodipodi="http://sodipodi.sourceforge.net/DTD/sodipodi-0.dtd" xmlns:svg="http://www.w3.org/2000/svg"
	 xmlns="http://www.w3.org/2000/svg" xmlns:xlink="http://www.w3.org/1999/xlink" x="0px" y="0px" viewBox="0 0 160 160"
	 style="enable-background:new 0 0 160 160;" xml:space="preserve">
<style type="text/css">
	.st0{fill:#FFFFFF;}
</style>
<sodipodi:namedview  bordercolor="#666666" borderopacity="1" gridtolerance="10" guidetolerance="10" id="namedview4321" inkscape:current-layer="Layer_1" inkscape:cx="35.965662" inkscape:cy="73.587919" inkscape:pageopacity="0" inkscape:pageshadow="2" inkscape:window-height="773" inkscape:window-maximized="0" inkscape:window-width="1169" inkscape:window-x="165" inkscape:window-y="214" inkscape:zoom="3.89" objecttolerance="10" pagecolor="#ffffff" showgrid="false">
	</sodipodi:namedview>
<g>
	<path class="st0" d="M80,34.7c-24.7,0-44.9,20.1-44.9,44.9c0,21.2,15.1,39.7,35.9,43.9c0.7,0.1,1.5,0,2.1-0.5
		c0.6-0.5,0.9-1.2,0.9-1.9V94.8l5.1-5c0.5-0.5,0.8-1.1,0.8-1.8c0-0.7-0.3-1.3-0.8-1.8l-5.1-5V57.7c0-2.8,3.8-3.5,5.8-3.5
		c2.3,0,6,1,6,3.5v39l-5.1,5c-0.5,0.5-0.8,1.1-0.8,1.8s0.3,1.3,0.8,1.8l5.1,5v10.9c0,0.7,0.3,1.5,0.9,1.9c0.5,0.4,1,0.6,1.6,0.6
		c0.2,0,0.3,0,0.5,0c20.9-4.2,36.1-22.7,36.1-44C124.8,54.8,104.7,34.7,80,34.7z M90.8,117.9v-8.7c0-0.7-0.3-1.3-0.8-1.8l-4-3.9
		l4-3.9c0.5-0.5,0.8-1.1,0.8-1.8v-40c0-5.6-5.5-8.5-11-8.5c-6.3,0-10.8,3.5-10.8,8.5v24.6c0,0.7,0.3,1.3,0.8,1.8l4,3.9l-4,3.9
		c-0.5,0.5-0.8,1.1-0.8,1.8v24.1C52.1,113,40.2,97.4,40.1,79.6c0-22,17.9-39.9,39.9-39.9c22,0,39.9,17.9,39.9,39.9
		C119.8,97.5,107.8,113.1,90.8,117.9z"/>
	<path class="st0" d="M80.1,24.5c-30.5,0-55.4,24.8-55.4,55.4c0,30.5,24.8,55.4,55.4,55.4s55.4-24.8,55.4-55.4
		C135.5,49.3,110.7,24.5,80.1,24.5z M80.1,130.2c-27.8,0-50.4-22.6-50.4-50.4c0-27.8,22.6-50.4,50.4-50.4s50.4,22.6,50.4,50.4
		C130.5,107.6,107.9,130.2,80.1,130.2z"/>
	<path class="st0" d="M80,0L80,0C35.8,0,0,35.8,0,80v0c0,44.2,35.8,80,80,80h0c44.2,0,80-35.8,80-80v0C160,35.8,124.2,0,80,0z
		 M80,155c-41.4,0-75-33.6-75-75C5,38.6,38.6,5,80,5c41.4,0,75,33.6,75,75C155,121.4,121.4,155,80,155z"/>
</g>
</svg>
