<?xml version="1.0" encoding="utf-8"?>
<!-- Generator: Adobe Illustrator 21.1.0, SVG Export Plug-In . SVG Version: 6.00 Build 0)  -->
<svg version="1.1" id="icons" xmlns="http://www.w3.org/2000/svg" xmlns:xlink="http://www.w3.org/1999/xlink" x="0px" y="0px"
	 viewBox="0 0 160 160" style="enable-background:new 0 0 160 160;" xml:space="preserve">
<style type="text/css">
	.st0{fill:#00A79D;}
</style>
<g>
	<g>
		<g>
			<rect x="62.5" y="95" class="st0" width="5" height="15"/>
		</g>
		<g>
			<rect x="92.5" y="95" class="st0" width="5" height="15"/>
		</g>
		<g>
			<path class="st0" d="M107.5,62.5H105c-4.2,0-7.5-3.2-7.5-7.5v-5c0-1.5-1-2.5-2.5-2.5h-2.5V44l-7,3.5H65c-1.5,0-2.5,1-2.5,2.5v5
				c0,4.3-3.2,7.5-7.5,7.5v-5c1.5,0,2.5-1,2.5-2.5v-5c0-4.2,3.2-7.5,7.5-7.5h19.5l13-6.5v7c3,1,5,3.8,5,7v5c0,1.5,1,2.5,2.5,2.5h2.5
				V62.5z"/>
		</g>
		<g>
			<rect x="52.5" y="57.5" class="st0" width="2.5" height="5"/>
		</g>
		<g>
			<path class="st0" d="M80,102.5c-19.5,0-27-18.8-27.5-31.5L50,68.5V40c0-5.5,4.5-10,10-10h0.2c1-4.2,5-7.5,9.8-7.5h27.5
				c7,0,12.5,5.5,12.5,12.5v33.5l-2.5,2.5C107,83.7,99.5,102.5,80,102.5z M55,66.5l2.5,2.5v1c0,10.8,6,27.5,22.5,27.5
				s22.5-16.8,22.5-27.5v-1l2.5-2.5V35c0-4.2-3.2-7.5-7.5-7.5H70c-2.8,0-5,2.2-5,5V35h-5c-2.8,0-5,2.2-5,5V66.5z"/>
		</g>
		<g>
			<path class="st0" d="M70.5,133l-27.8-12.2l16.8-13.2l23,5.8v8L70.5,133z M52.2,119.5l17.2,7.7l8-8v-2l-17-4.2L52.2,119.5z"/>
		</g>
		<g>
			<path class="st0" d="M89.5,133l-12-12v-8l23-5.7l16.8,13.2L89.5,133z M82.5,119l8,8l17.3-7.8l-8.2-6.8l-17,4.5V119z"/>
		</g>
		<g>
			<rect x="77.5" y="142.5" class="st0" width="5" height="5"/>
		</g>
		<g>
			<rect x="77.5" y="132.5" class="st0" width="5" height="5"/>
		</g>
		<g>
			<path class="st0" d="M13,123.7C4.5,111,0,95.7,0,80C0,36,36,0,80,0s80,36,80,80c0,15.8-4.5,31-13,43.8l-4.2-2.7
				c8-12,12.2-26.2,12.2-41c0-41.2-33.8-75-75-75S5,38.7,5,80c0,14.8,4.2,29,12,41.2L13,123.7z"/>
		</g>
		<g>
			<path class="st0" d="M80,160c-21.5,0-41.8-8.2-56.8-23.2l-0.7-0.8v-1c0-1,0.5-9.5,16.8-14.8l7.5-2.5l1.5,4.8l-7.5,2.5
				c-9.8,3.2-12.5,7.5-13,9.2C41.8,147.5,60.2,155,80,155c20,0,38.5-7.5,52.2-20.8c-0.8-1.8-3.2-6-13-9.2l-7.5-2.5l1.5-4.8l7.5,2.5
				c16.2,5.5,16.8,14,16.8,14.8v1l-0.8,0.8C122,151.7,101.8,160,80,160z"/>
		</g>
		<g>
			<path class="st0" d="M15,125c-0.2,0-0.2,0-0.5,0L2,122.5l1-5l10,2l2-10l5,1L17.5,123C17.2,124.2,16.2,125,15,125z"/>
		</g>
		<g>
			<path class="st0" d="M145,125c-1.2,0-2.2-0.8-2.5-2l-2.5-12.5l5-1l2,10l10-2l1,5l-12.5,2.5C145.2,125,145.2,125,145,125z"/>
		</g>
	</g>
</g>
</svg>
