<?xml version="1.0" encoding="utf-8"?>
<!-- Generator: Adobe Illustrator 21.1.0, SVG Export Plug-In . SVG Version: 6.00 Build 0)  -->
<svg version="1.1" id="icons" xmlns="http://www.w3.org/2000/svg" xmlns:xlink="http://www.w3.org/1999/xlink" x="0px" y="0px"
	 viewBox="0 0 160 160" style="enable-background:new 0 0 160 160;" xml:space="preserve">
<style type="text/css">
	.st0{fill:#00A79D;}
</style>
<g>
	<path class="st0" d="M157.4,25H2.6C1.1,25,0,26.1,0,27.6v109.6c0,1.6,1.1,2.6,2.6,2.6H80v-5H5V30h150v60.1h5V27.6
		C160,26.1,158.9,25,157.4,25z"/>
	<path class="st0" d="M67.7,44.9H52.6v15.1h15.1V44.9z M57.6,54.9v-4.8h4.8v4.8H57.6z"/>
	<path class="st0" d="M87.5,44.9H72.5v15.1h15.1V44.9z M77.5,54.9v-4.8h5.1v4.8H77.5z"/>
	<path class="st0" d="M107.6,44.9H92.6v15.1h15.1V44.9z M97.6,54.9v-4.8h4.8v4.8H97.6z"/>
	<path class="st0" d="M127.5,44.9h-15.1v15.1h15.1V44.9z M117.4,54.9v-4.8h4.8v4.8H117.4z"/>
	<path class="st0" d="M147.6,44.9h-15.1v15.1h15.1V44.9z M137.6,54.9v-4.8h4.8v4.8H137.6z"/>
	<path class="st0" d="M67.7,65H52.6V80h15.1V65z M57.6,75.1v-4.8h4.8v4.8H57.6z"/>
	<path class="st0" d="M47.6,65H32.5V80h15.1V65z M37.5,75.1v-4.8h4.8v4.8H37.5z"/>
	<path class="st0" d="M27.4,80V65H12.4V80h15.3V80H27.4z M17.6,75.1v-4.8h4.8v4.8H17.6z"/>
	<path class="st0" d="M72.5,80h15.1V65H72.5V80z M82.5,70.2v4.8h-5.1v-4.8H82.5z"/>
	<path class="st0" d="M92.6,80h15.1V65H92.6V80z M102.4,70.2v4.8h-4.8v-4.8H102.4z"/>
	<path class="st0" d="M112.4,80h15.1V65h-15.1V80z M122.2,70.2v4.8h-4.8v-4.8H122.2z"/>
	<path class="st0" d="M132.6,80h15.1V65h-15.1V80z M142.4,70.2v4.8h-4.8v-4.8H142.4z"/>
	<path class="st0" d="M67.7,85.1H52.6v15.1h15.1V85.1z M57.6,94.9v-4.8h4.8v4.8H57.6z"/>
	<path class="st0" d="M47.6,85.1H32.5v15.1h15.1V85.1z M37.5,94.9v-4.8h4.8v4.8H37.5z"/>
	<path class="st0" d="M27.4,100.1v-15H12.4v15.1h15.3v-0.1H27.4z M17.6,94.9v-4.8h4.8v4.8H17.6z"/>
	<path class="st0" d="M72.5,100.2h15.1V85.1H72.5V100.2z M82.5,90.1v4.8h-5.1v-4.8H82.5z"/>
	<path class="st0" d="M52.6,120h15.1V105H52.6V120z M62.4,110.2v4.8h-4.8v-4.8H62.4z"/>
	<path class="st0" d="M32.5,120h15.1V105H32.5V120z M42.3,110.2v4.8h-4.8v-4.8H42.3z"/>
	<path class="st0" d="M12.4,105V120h15.3v-0.1h-0.2v-15H12.4z M17.6,115v-4.8h4.8v4.8H17.6z"/>
	<path class="st0" d="M157.4,0H2.6C1.1,0,0,1.1,0,2.6V20h5V5h150v15.2h5V2.6C160,1.1,158.9,0,157.4,0z"/>
	<rect x="17.5" y="10.1" class="st0" width="124.9" height="5"/>
	<rect x="37.4" y="50" class="st0" width="5" height="5"/>
	<rect x="17.5" y="50" class="st0" width="5" height="5"/>
	<path class="st0" d="M109.4,120.4l-3.7,3.7l9.8,10.1c0.6,0.6,1.1,0.8,1.8,0.8c0.7,0,1.3-0.2,1.8-0.8l20.4-20.1l0,0l-3.7-3.7
		l-18.3,18.3L109.4,120.4z"/>
	<path class="st0" d="M122.6,85.1c-20.6,0-37.4,16.8-37.4,37.4c0,20.6,16.8,37.4,37.4,37.4c10,0,19.4-3.9,26.5-10.9
		c7.1-7,11-16.5,11-26.6S156.1,103,149,96C142,89,132.6,85.1,122.6,85.1z M155,122.6c0,8.7-3.4,16.9-9.5,23s-14.3,9.5-23,9.5
		s-16.9-3.4-23-9.5c-6.1-6.1-9.5-14.3-9.5-23s3.4-16.9,9.5-23c6.1-6.1,14.3-9.5,23-9.5C140.4,90.1,155,104.7,155,122.6z"/>
</g>
</svg>
