<?xml version="1.0" encoding="utf-8"?>
<!-- Generator: Adobe Illustrator 22.0.0, SVG Export Plug-In . SVG Version: 6.00 Build 0)  -->
<svg version="1.1" id="Layer_1" xmlns="http://www.w3.org/2000/svg" xmlns:xlink="http://www.w3.org/1999/xlink" x="0px" y="0px"
	 viewBox="0 0 160 160" style="enable-background:new 0 0 160 160;" xml:space="preserve">
<style type="text/css">
	.st0{fill:#FFFFFF;}
</style>
<g>
	<path class="st0" d="M80,0C35.9,0,0,35.9,0,80s35.9,80,80,80s80-35.9,80-80S124.1,0,80,0z M80,24.3c14.7,0,28,5.7,38,15L98.6,49.6
		c-5.7-3.4-12.1-5.3-18.6-5.3c-19.6,0-35.6,16-35.6,35.6c0,6.7,2,13.3,5.7,19.3l0.1,0.2l-10.1,19l18.8-10.1c6.1,4.5,13.6,7,21.2,7
		c19.6,0,35.6-16,35.6-35.6c-0.1-7.2-2.5-14.5-6.9-20.7l10.1-19c10.4,10.1,16.8,24.3,16.8,39.9c0,30.7-25,55.7-55.7,55.7
		s-55.7-25-55.7-55.7C24.3,49.3,49.3,24.3,80,24.3z M75.6,69.3l28.9-15.5L89,82.8L75.6,69.3z M84.5,87.3l-28.6,15.4l15.3-28.8
		L84.5,87.3z M54.1,92.1c-1.8-3.8-2.8-8-2.8-12.3C51.3,64,64.2,51.1,80,51.1c3.9,0,7.8,0.8,11.4,2.4L67.9,66.2L54.1,92.1z
		 M92.1,90.5l13-24.5c2.4,4.3,3.6,9,3.6,13.8c0,15.8-12.9,28.7-28.7,28.7c-5,0-9.9-1.4-14.2-3.9L92.1,90.5z M83,153v-10.5
		c15.9-0.8,30.8-7.5,41.9-19c11.4-11.8,17.7-27.2,17.7-43.6s-6.3-31.8-17.7-43.6c-11.2-11.5-26-18.2-41.9-19V7
		c18.7,0.8,36.1,8.6,49.3,22c13.4,13.7,20.8,31.8,20.8,51s-7.4,37.2-20.8,51C119.2,144.4,101.7,152.2,83,153z M76.6,7v10.3
		C61.4,18.1,47,24.5,36,35.3C25.1,46.1,18.5,60.4,17.5,75.6H7.1C9.3,38.6,39.6,8.7,76.6,7z M76.6,142.5V153C38.3,151.2,8,120.3,7,82
		h10.4C18.5,114.4,44.2,140.7,76.6,142.5z"/>
	<rect x="76.1" y="29.9" class="st0" width="7.9" height="7.9"/>
	<rect x="76.1" y="122.2" class="st0" width="7.9" height="7.9"/>
	<rect x="29.9" y="76.1" class="st0" width="7.9" height="7.9"/>
	<rect x="122.2" y="76.1" class="st0" width="7.9" height="7.9"/>
</g>
</svg>
