<?xml version="1.0" encoding="utf-8"?>
<!-- Generator: Adobe Illustrator 19.2.1, SVG Export Plug-In . SVG Version: 6.00 Build 0)  -->
<svg version="1.1" id="Layer_1" xmlns="http://www.w3.org/2000/svg" xmlns:xlink="http://www.w3.org/1999/xlink" x="0px" y="0px"
	 viewBox="0 0 120 80" style="enable-background:new 0 0 120 80;" xml:space="preserve">
<style type="text/css">
	.st0{opacity:0.8;fill:#000004;}
</style>
<title>Collection</title>
<desc>Created with Sketch.</desc>
<path class="st0" d="M44,0h-4.6v14.5h0c0,5.4-4.4,9.8-9.8,9.8c-3,0-5.7-1.4-7.5-3.5c-1.8,2.1-4.5,3.5-7.5,3.5
	c-5.4,0-9.8-4.4-9.8-9.8V4.6h4.6v9.8c0,2.9,2.3,5.2,5.2,5.2c2.9,0,5.2-2.3,5.2-5.2v-0.8v-0.4V7.7h4.6v5.6v0.4v0.8
	c0,2.9,2.3,5.2,5.2,5.2c2.9,0,5.2-2.3,5.2-5.2h0V0H0v44h4.6v-5.8h4.6V44h20.2c2.9,0,5.2-2.3,5.2-5.2c0-2.9-2.3-5.2-5.2-5.2H4.6V29
	h24.9c5.4,0,9.8,4.4,9.8,9.8c0,1.9-0.6,3.7-1.5,5.2H44V0z"/>
</svg>
