<?xml version="1.0" encoding="utf-8"?>
<!-- Generator: Adobe Illustrator 22.0.0, SVG Export Plug-In . SVG Version: 6.00 Build 0)  -->
<svg version="1.1" id="icons" xmlns="http://www.w3.org/2000/svg" xmlns:xlink="http://www.w3.org/1999/xlink" x="0px" y="0px"
	 viewBox="0 0 160 160" style="enable-background:new 0 0 160 160;" xml:space="preserve">
<style type="text/css">
	.st0{fill:#00A79D;}
</style>
<g>
	<path class="st0" d="M17.3,92.3c0,1.5,0.8,2.7,2,3.1c0.5,0.3,1.2,0.3,1.5,0.3c1,0,1.7-0.3,2.4-1L41.9,76h85c4.7,0,8.4-3.7,8.4-8.4
		V13.3c0-4.7-3.7-8.4-8.4-8.4H8.4C3.7,4.9,0,8.6,0,13.3v54.3C0,72.3,3.7,76,8.4,76h8.9V92.3z M20.8,69.1H8.4c-0.9,0-1.5-0.5-1.5-1.5
		V13.3c0-0.9,0.5-1.5,1.5-1.5h118.5c0.9,0,1.5,0.5,1.5,1.5v54.3c0,0.9-0.5,1.5-1.5,1.5H40.5c-1,0-1.7,0.3-2.4,1L24.2,84V72.6
		C24.2,70.6,22.8,69.1,20.8,69.1z"/>
	<path class="st0" d="M159.7,95.9c-0.4-1.3-1.6-2.1-3.2-2.1h-21.2v-6.4c0-4.7-3.7-8.4-8.4-8.4H42v6.9h84.9c0.9,0,1.5,0.5,1.5,1.5
		v9.9c0,2,1.4,3.5,3.5,3.5h16.3l-18.8,18.8c-0.7,0.7-1,1.5-1,2.4v24.7c0,0.9-0.5,1.5-1.5,1.5H25.7c-0.9,0-1.5-0.5-1.5-1.5v-48h-6.9
		v47.9c0,4.7,3.7,8.4,8.4,8.4h101.2c4.7,0,8.4-3.7,8.4-8.4v-23.3L159,99.7C160,98.6,160.3,97.2,159.7,95.9z"/>
	<rect x="13.9" y="34.6" class="st0" width="108.6" height="6.9"/>
	<rect x="13.9" y="44.4" class="st0" width="108.6" height="6.9"/>
	<rect x="31.2" y="123.4" class="st0" width="90.3" height="6.9"/>
	<rect x="31.2" y="133.3" class="st0" width="65.6" height="6.9"/>
	<rect x="13.9" y="54.3" class="st0" width="37.5" height="6.9"/>
	<rect x="64.2" y="19.8" class="st0" width="6.9" height="6.9"/>
	<rect x="74.1" y="19.8" class="st0" width="6.9" height="6.9"/>
	<rect x="54.3" y="19.8" class="st0" width="6.9" height="6.9"/>
	<rect x="51.8" y="93.8" class="st0" width="6.9" height="6.9"/>
	<rect x="61.7" y="93.8" class="st0" width="6.9" height="6.9"/>
	<rect x="42" y="93.8" class="st0" width="6.9" height="6.9"/>
	<path class="st0" d="M31.2,107.2v9.9c0,2,1.4,3.5,3.5,3.5H118c2,0,3.5-1.4,3.5-3.5v-9.9c0-2-1.4-3.5-3.5-3.5H34.6
		C32.6,103.7,31.2,105.1,31.2,107.2z"/>
</g>
</svg>
