<?xml version="1.0" encoding="utf-8"?>
<!-- Generator: Adobe Illustrator 22.0.0, SVG Export Plug-In . SVG Version: 6.00 Build 0)  -->
<svg version="1.1" id="Layer_1" xmlns="http://www.w3.org/2000/svg" xmlns:xlink="http://www.w3.org/1999/xlink" x="0px" y="0px"
	 viewBox="0 0 160 160" style="enable-background:new 0 0 160 160;" xml:space="preserve">
<style type="text/css">
	.st0{fill:none;stroke:#FFFFFF;stroke-width:7;stroke-miterlimit:10;}
</style>
<g id="icons">
	<rect x="65" y="65" class="st0" width="30" height="30"/>
	<rect x="15" y="65" class="st0" width="30" height="30"/>
	<rect x="115" y="65" class="st0" width="30" height="30"/>
	<rect x="65" y="15" class="st0" width="30" height="30"/>
	<rect x="65" y="115" class="st0" width="30" height="30"/>
	<path class="st0" d="M45,45H15V25c0-5.5,4.5-10,10-10h20V45z"/>
	<path class="st0" d="M115,45V15h20c5.5,0,10,4.5,10,10v20H115z"/>
	<path class="st0" d="M115,115h30v20c0,5.5-4.5,10-10,10h-20V115z"/>
	<path class="st0" d="M45,115v30H25c-5.5,0-10-4.5-10-10v-20H45z"/>
</g>
</svg>
